<?xml version="1.0" standalone="no"?>
<!DOCTYPE svg PUBLIC "-//W3C//DTD SVG 20010904//EN"
 "http://www.w3.org/TR/2001/REC-SVG-20010904/DTD/svg10.dtd">
<svg version="1.0" xmlns="http://www.w3.org/2000/svg"
 width="1280.000000pt" height="1218.000000pt" viewBox="0 0 1280.000000 1218.000000"
 preserveAspectRatio="xMidYMid meet">
<g transform="translate(0.000000,1218.000000) scale(0.100000,-0.100000)"
fill="#ffffff" stroke="none">
<path d="M5929 12161 c-36 -10 -89 -31 -118 -46 -72 -40 -199 -176 -282 -303
-74 -113 -221 -402 -335 -662 -38 -85 -398 -816 -800 -1625 l-731 -1470 -1429
-5 -1429 -5 -70 -34 c-134 -66 -267 -229 -397 -487 -132 -262 -338 -822 -338
-922 0 -15 10 -57 22 -93 31 -93 96 -157 257 -252 198 -118 271 -195 300 -318
6 -24 36 -264 66 -534 57 -501 101 -893 225 -1978 38 -339 102 -895 140 -1235
119 -1040 140 -1225 151 -1292 69 -436 283 -709 646 -824 75 -23 138 -35 340
-65 50 -8 1311 -11 4140 -11 4269 0 4209 -1 4493 41 203 30 409 111 523 206
138 115 225 270 271 485 9 40 50 341 91 668 41 327 178 1423 305 2435 127
1012 237 1879 245 1927 32 188 72 240 301 390 180 119 219 165 263 314 23 77
26 136 12 193 -6 20 -19 74 -30 121 -48 206 -163 435 -374 753 -238 356 -354
453 -598 503 -77 16 -193 17 -1329 18 l-1245 1 -706 1415 c-389 778 -757 1523
-819 1655 -280 599 -423 831 -588 954 -76 58 -135 81 -203 81 -65 0 -113 -19
-213 -85 -121 -80 -172 -147 -212 -280 -25 -80 -25 -311 -1 -441 92 -490 345
-1047 946 -2079 96 -165 237 -433 386 -734 129 -260 235 -477 235 -482 0 -5
-685 -9 -1600 -9 -1409 0 -1600 2 -1600 15 0 8 187 392 416 852 1051 2114
1004 2016 1059 2211 51 185 69 314 69 512 1 166 -2 193 -22 260 -43 138 -102
210 -208 250 -77 30 -143 33 -225 11z"/>
</g>
</svg>
